<svg xmlns="http://www.w3.org/2000/svg" viewBox="0 0 206.75 25.37"><defs><style>.cls-1{fill:none;stroke:#fff;stroke-miterlimit:10;stroke-width:4px;}</style></defs><g id="Layer_2" data-name="Layer 2"><g id="Layer_1-2" data-name="Layer 1"><line class="cls-1" x1="179.63" y1="2" x2="194.19" y2="2"/><line class="cls-1" x1="201.19" y1="2" x2="206.75" y2="2"/><line class="cls-1" x1="27.12" y1="2" x2="12.56" y2="2"/><line class="cls-1" x1="5.56" y1="2" y2="2"/><path class="cls-1" d="M34.92,2H90.49a12.05,12.05,0,0,1,7.8,2.87l9.41,8a5.88,5.88,0,0,1,.35,8.63l-.15.14a5.85,5.85,0,0,1-8.09.2h0a5.87,5.87,0,0,1-.12-8.6L108,5.33A12,12,0,0,1,116.31,2h55.18"/></g></g></svg>