<svg xmlns="http://www.w3.org/2000/svg" xmlns:xlink="http://www.w3.org/1999/xlink" viewBox="0 0 401.21 127.06"><defs><style>.cls-1{fill:none;}.cls-2{fill:#0a3267;}.cls-3{fill:#ffc140;}.cls-4{fill:#ed1c25;}.cls-5{clip-path:url(#clip-path);}.cls-6{clip-path:url(#clip-path-2);}.cls-7{fill:#fff;}</style><clipPath id="clip-path" transform="translate(-5.8 -4.14)"><rect class="cls-1" width="411.72" height="147.81"/></clipPath><clipPath id="clip-path-2" transform="translate(-5.8 -4.14)"><rect class="cls-1" x="0.01" width="411.71" height="134"/></clipPath></defs><g id="Layer_2" data-name="Layer 2"><g id="Layer_1-2" data-name="Layer 1"><polygon class="cls-2" points="399.44 26.28 314.56 26.28 314.56 101.31 399.43 101.31 387.08 63.96 399.44 26.28"/><polygon class="cls-3" points="314.56 101.31 314.56 103.45 400.14 103.45 399.43 101.31 314.56 101.31"/><polygon class="cls-3" points="314.56 24.13 314.56 26.28 399.44 26.28 400.15 24.13 314.56 24.13"/><polygon class="cls-4" points="314.56 103.45 314.56 106.68 401.21 106.68 400.14 103.45 314.56 103.45"/><polygon class="cls-4" points="314.56 20.91 314.56 24.13 400.15 24.13 401.21 20.91 314.56 20.91"/><polygon class="cls-2" points="1.76 26.28 14.13 63.96 1.78 101.31 86.65 101.31 86.65 26.28 1.76 26.28"/><polygon class="cls-3" points="1.78 101.31 1.07 103.45 86.66 103.45 86.66 101.31 1.78 101.31"/><polygon class="cls-3" points="1.06 24.13 1.76 26.28 86.66 26.28 86.66 24.13 1.06 24.13"/><polygon class="cls-4" points="1.07 103.45 0 106.68 86.65 106.68 86.65 103.45 1.07 103.45"/><polygon class="cls-4" points="0 20.91 1.06 24.13 86.66 24.13 86.66 20.91 0 20.91"/><g class="cls-5"><path class="cls-3" d="M92.46,42.88V25.05C74.81,39,34.73,38.14,34.73,38.14a228.64,228.64,0,0,0,57.73,4.74" transform="translate(-5.8 -4.14)"/><path class="cls-3" d="M320.36,92.47v18.35c17.64-14,57.72-14.16,57.72-14.16a256.71,256.71,0,0,0-57.72-4.19" transform="translate(-5.8 -4.14)"/><path class="cls-2" d="M377.07,13.77c-59-11.32-116.42,2.26-172,15.39-40.21,9.5-81.4,19.25-122.92,19.25a227.56,227.56,0,0,1-47.43-4.79v77.19l1.14.25c55.16,12,109-.71,166.09-14.18C258.48,93.52,316.9,79.73,378.08,91.19V14Z" transform="translate(-5.8 -4.14)"/></g><g class="cls-6"><path class="cls-3" d="M205.09,29.16c55.56-13.13,113-26.71,172-15.4l1,.2V11.77l-.6-.12C318,.26,260.37,13.89,204.6,27.07c-40.08,9.48-81.15,19.18-122.45,19.18a224.78,224.78,0,0,1-47.42-4.82v2.2A228.37,228.37,0,0,0,82.17,48.4c41.51,0,82.71-9.73,122.92-19.24" transform="translate(-5.8 -4.14)"/><path class="cls-3" d="M202,106.88C144.92,120.35,91,133.09,35.88,121.06l-1.14-.25V123l.68.15c55.63,12.14,109.75-.66,167-14.19,56.41-13.33,114.74-27.1,175.62-15.59V91.2C316.89,79.73,258.47,93.53,202,106.88" transform="translate(-5.8 -4.14)"/><path class="cls-4" d="M204.6,27.07C260.37,13.89,318,.26,377.48,11.65l.6.12V8.49C257.84-14.58,148.1,62.87,34.74,38.14v3.29a225.23,225.23,0,0,0,47.42,4.82c41.29,0,82.36-9.71,122.44-19.18" transform="translate(-5.8 -4.14)"/><path class="cls-4" d="M202.46,109c-57.29,13.53-111.41,26.32-167,14.19l-.68-.15v3.3c112.88,24.62,222.7-52.8,343.34-29.66V93.38C317.2,81.87,258.87,95.64,202.46,109" transform="translate(-5.8 -4.14)"/></g><g class="cls-5"><path class="cls-7" d="M64,92.78c-2.11-.15-3.17-.24-5.28-.43v21.9c-3.53-.33-5.3-.52-8.83-1V57.18c5.64.73,8.47,1,14.11,1.4,10.16.72,14.42,5.9,14.42,17.63,0,11.35-3.78,17.32-14.42,16.57m.16-26.23c-2.18-.15-3.26-.24-5.44-.44V84.39c2.18.2,3.26.29,5.44.44,4.73.33,5.43-3.86,5.43-8.82s-.7-9.13-5.43-9.46" transform="translate(-5.8 -4.14)"/><path class="cls-7" d="M107.22,114.31c-2.93-9-4.4-13.46-7.33-22.5l-5,.25v23c-3.54.14-5.3.19-8.83.23V59.21c5.67-.07,8.51-.18,14.18-.51,10.25-.6,14.35,3.81,14.35,15.39,0,6.93-1.42,12.07-6.55,15.26,3.34,9.68,5,14.5,8.36,24.1-3.69.39-5.53.57-9.22.86m-6.86-47.66c-2.17.13-3.26.19-5.43.28V84.1c2.17-.09,3.26-.15,5.43-.28,4.73-.27,5.44-4.3,5.44-8.95s-.71-8.5-5.44-8.22" transform="translate(-5.8 -4.14)"/><path class="cls-7" d="M148,104.75a16,16,0,0,1-10.87,6.57c-5.36.85-8.52-.77-10.88-3.14-4.18-4.18-4.1-12.4-4.1-23.43s-.08-19.19,4.1-24.48A16.18,16.18,0,0,1,137.16,54c5.35-.85,8.51.62,10.87,2.87,4.18,4,4.1,12.17,4.1,23.2s.08,19.22-4.1,24.71m-6.62-41.39c-.79-1.13-2.12-1.77-4.25-1.44A5.49,5.49,0,0,0,133,64.69c-1.66,2.93-2,8.64-2,18.88s.31,15.88,2,18.31c.79,1.14,2.05,1.82,4.18,1.49a5.62,5.62,0,0,0,4.25-2.83c1.66-3,1.89-8.67,1.89-18.91s-.23-15.87-1.89-18.27" transform="translate(-5.8 -4.14)"/><path class="cls-7" d="M173.56,104.25c-5.36,1.21-8.51-.18-10.88-2.36-4.18-3.86-4.1-12.09-4.1-23.11s-.08-19.2,4.1-24.8a17.62,17.62,0,0,1,10.88-7.08c4.33-1,7.64-.33,10,1.48,2.75,2.18,4.17,5.94,4.33,10.71-3.53.84-5.3,1.26-8.83,2.07-.08-3.13-.79-7.37-5.51-6.31a6,6,0,0,0-4.18,3.06c-1.65,3-2,8.78-2,19s.32,15.85,2,18.17c.79,1.09,2.05,1.68,4.18,1.2,3.78-.85,5.51-4.57,5.51-8.43V79.12c-2.2.52-3.31.77-5.51,1.26V73.13c5.73-1.28,8.6-2,14.34-3.33V85.33c0,10.16-6,17-14.34,18.92" transform="translate(-5.8 -4.14)"/><path class="cls-7" d="M217.05,93.2,209.72,72l-5,1.22v23l-8.83,2.16V42.26c5.67-1.37,8.51-2.08,14.18-3.47,10.25-2.5,14.35,1.49,14.35,13.07,0,6.93-1.42,12.23-6.55,16.23,3.35,9.15,5,13.72,8.36,22.89-3.69.88-5.53,1.32-9.22,2.22m-6.86-46.47-5.43,1.33V65.24l5.43-1.34c4.73-1.15,5.44-5.26,5.44-9.91s-.71-8.42-5.44-7.26" transform="translate(-5.8 -4.14)"/><path class="cls-7" d="M233.59,89.26V33.16C243,31,247.73,29.94,257.15,28.1v7.95c-5.89,1.16-8.84,1.78-14.74,3.08V55c5.08-1.11,7.62-1.65,12.7-2.67v8c-5.08,1-7.62,1.55-12.7,2.67V79.31c5.9-1.3,8.85-1.92,14.74-3.08v8C247.73,86,243,87.08,233.59,89.26" transform="translate(-5.8 -4.14)"/><path class="cls-7" d="M288.27,76.05c-2.28,2.48-6,4.45-10.95,5.19s-8.51,0-10.87-1.93c-2.68-2.21-3.63-5.49-3.63-11.4,3.53-.65,5.29-1,8.83-1.54,0,3,.31,4.83,1.57,6a4.76,4.76,0,0,0,4.1.86,6.09,6.09,0,0,0,4.26-2.19c1.18-1.5,1.49-3.43,1.49-6.43,0-6-.94-7.38-5.28-8.46-2.68-.71-4-1.05-6.7-1.71-5.67-1.43-7.79-4.08-7.79-12.75,0-5,1.49-9.42,4.56-12.71a16.39,16.39,0,0,1,9.62-4.93c4.49-.68,7.8.08,10.09,2,2.91,2.47,3.94,6.38,3.94,11.74-3.54.4-5.3.62-8.83,1.1,0-2.52-.16-4.47-1.34-5.8-.79-.91-2-1.37-3.94-1.08a5.54,5.54,0,0,0-3.78,2.16,9.39,9.39,0,0,0-1.5,5.75c0,4.57.71,5.85,4.65,6.84,2.65.67,4,1,6.62,1.73,6.7,1.85,8.51,5.25,8.51,14.7,0,5.76-.79,9.7-3.63,12.8" transform="translate(-5.8 -4.14)"/><path class="cls-7" d="M323.1,73.57c-2.29,2.25-6,3.83-11,4.08s-8.52-.78-10.88-3c-2.68-2.45-3.63-5.82-3.63-11.72,3.53-.34,5.3-.49,8.83-.74,0,3,.32,4.87,1.58,6.2a5.12,5.12,0,0,0,4.1,1.26,5.54,5.54,0,0,0,4.25-1.77c1.18-1.39,1.5-3.29,1.5-6.28,0-6-.95-7.48-5.28-9-2.68-1-4-1.44-6.7-2.35-5.68-2-7.8-4.79-7.8-13.46,0-5,1.49-9.29,4.57-12.3a14.61,14.61,0,0,1,9.61-4c4.49-.23,7.81.87,10.09,3,2.91,2.78,3.94,6.81,3.94,12.16-3.53,0-5.3.06-8.83.19,0-2.52-.16-4.49-1.33-5.94a4.44,4.44,0,0,0-3.95-1.47,4.94,4.94,0,0,0-3.78,1.79c-1,1.25-1.5,3.17-1.5,5.61,0,4.57.71,5.92,4.65,7.29,2.65.92,4,1.4,6.62,2.38,6.7,2.54,8.51,6.14,8.51,15.6,0,5.75-.78,9.6-3.62,12.41" transform="translate(-5.8 -4.14)"/><path class="cls-7" d="M358.79,74.26c-2.37,2.42-5.51,4.11-10.88,3.73A14.63,14.63,0,0,1,337,72.71c-4.18-4.85-4.1-13-4.1-24s-.08-19.26,4.1-23.86c2.37-2.6,5.51-4.55,10.87-4.17a14.34,14.34,0,0,1,10.88,5.72c4.18,5.2,4.1,13.42,4.1,24.45s.08,19.2-4.1,23.45m-6.62-43.2a5.08,5.08,0,0,0-4.26-2.47,4.17,4.17,0,0,0-4.17,1.87c-1.66,2.59-2,8.25-2,18.49s.31,15.92,2,18.69A4.86,4.86,0,0,0,347.91,70a4.3,4.3,0,0,0,4.26-1.79c1.66-2.53,1.89-8.18,1.89-18.42s-.23-15.94-1.89-18.76" transform="translate(-5.8 -4.14)"/><polygon class="cls-7" points="360.82 21 360.82 26.8 359.76 26.64 359.76 20.85 358.63 20.68 358.63 19.72 361.96 20.22 361.96 21.18 360.82 21"/><polygon class="cls-7" points="366.15 27.61 366.15 23.4 365.23 26.03 364.64 25.94 363.74 23.08 363.74 27.25 362.68 27.08 362.68 20.33 363.63 20.48 364.95 24.22 366.24 20.87 367.21 21.02 367.21 27.77 366.15 27.61"/></g></g></g></svg>